<svg width="32" height="32" viewBox="0 0 32 32" fill="none" xmlns="http://www.w3.org/2000/svg">
<circle cx="16" cy="16" r="16" fill="#0D47A1"/>
<path d="M7.5 24C7.1 24 6.75 23.85 6.45 23.55C6.15 23.25 6 22.9 6 22.5V9.5C6 9.1 6.15 8.75 6.45 8.45C6.75 8.15 7.1 8 7.5 8H24.5C24.9 8 25.25 8.15 25.55 8.45C25.85 8.75 26 9.1 26 9.5V22.5C26 22.9 25.85 23.25 25.55 23.55C25.25 23.85 24.9 24 24.5 24H7.5ZM7.5 22.5H24.5V11.6H7.5V22.5ZM14.95 20.2L11.75 17L12.85 15.9L14.95 18L19.15 13.8L20.25 14.9L14.95 20.2Z" fill="white"/>
</svg>
