<svg
  width="21"
  height="32"
  viewBox="0 0 21 32"
  fill="none"
  xmlns="http://www.w3.org/2000/svg"
>
<path
    d="M8.60001 28C8.60001 30.2 6.80001 32 4.60001 32C2.40001 32 0.600006 30.2 0.600006 28C0.600006 25.8 2.40001 24 4.60001 24C6.80001 24 8.60001 25.8 8.60001 28ZM4.60001 12C2.40001 12 0.600006 13.8 0.600006 16C0.600006 18.2 2.40001 20 4.60001 20C6.80001 20 8.60001 18.2 8.60001 16C8.60001 13.8 6.80001 12 4.60001 12ZM4.60001 0C2.40001 0 0.600006 1.8 0.600006 4C0.600006 6.2 2.40001 8 4.60001 8C6.80001 8 8.60001 6.2 8.60001 4C8.60001 1.8 6.80001 0 4.60001 0ZM16.6 8C18.8 8 20.6 6.2 20.6 4C20.6 1.8 18.8 0 16.6 0C14.4 0 12.6 1.8 12.6 4C12.6 6.2 14.4 8 16.6 8ZM16.6 12C14.4 12 12.6 13.8 12.6 16C12.6 18.2 14.4 20 16.6 20C18.8 20 20.6 18.2 20.6 16C20.6 13.8 18.8 12 16.6 12ZM16.6 24C14.4 24 12.6 25.8 12.6 28C12.6 30.2 14.4 32 16.6 32C18.8 32 20.6 30.2 20.6 28C20.6 25.8 18.8 24 16.6 24Z"
    fill="#BDBDBD"
  />
</svg>
