<svg xmlns="http://www.w3.org/2000/svg" width="24" height="24" viewBox="0 0 24 24">
    <path fill="#A5CD39" fill-rule="nonzero" d="M21.5 0h-19A2.507 2.507 0 0 0 0 2.5v19C0 22.875 1.125 24 2.5 24h19c1.375 0 2.5-1.125 2.5-2.5v-19C24 1.125 22.875 0 21.5 0zM6.182 19.98a2.18 2.18 0 1 1 0-4.361c1.203 0 2.182.977 2.182 2.181a2.182 2.182 0 0 1-2.182 2.18zm5.471.02a7.68 7.68 0 0 0-2.243-5.447A7.561 7.561 0 0 0 4 12.302V9.153c5.826 0 10.803 5.021 10.803 10.848h-3.15V20zm5.564 0c0-7.323-6.019-13.281-13.217-13.281V3.57c8.91 0 16.365 7.37 16.365 16.43h-3.148z"/>
</svg>
