<svg xmlns="http://www.w3.org/2000/svg" width="24" height="24" viewBox="0 0 24 24">
    <path fill="#A5CD39" fill-rule="nonzero" d="M21.5 0h-19A2.507 2.507 0 0 0 0 2.5v19C0 22.875 1.125 24 2.5 24h19c1.375 0 2.5-1.125 2.5-2.5v-19C24 1.125 22.875 0 21.5 0zm-2.357 8.908c.006.153.01.309.01.464 0 4.738-3.606 10.2-10.2 10.2-2.025 0-3.909-.593-5.495-1.611a7.196 7.196 0 0 0 5.307-1.483 3.588 3.588 0 0 1-3.349-2.489 3.669 3.669 0 0 0 1.619-.063 3.584 3.584 0 0 1-2.876-3.516v-.044a3.529 3.529 0 0 0 1.624.446 3.582 3.582 0 0 1-1.11-4.784 10.177 10.177 0 0 0 7.39 3.745 3.584 3.584 0 0 1 6.109-3.269 7.163 7.163 0 0 0 2.276-.871 3.584 3.584 0 0 1-1.576 1.983 7.048 7.048 0 0 0 2.059-.563 7.333 7.333 0 0 1-1.788 1.855z"/>
</svg>
