<svg xmlns="http://www.w3.org/2000/svg" width="24" height="24" viewBox="0 0 24 24">
    <path fill="#A5CD39" fill-rule="nonzero" d="M21.5 0h-19A2.5 2.5 0 0 0 0 2.5v19A2.5 2.5 0 0 0 2.5 24h19a2.5 2.5 0 0 0 2.5-2.5v-19A2.5 2.5 0 0 0 21.5 0zM10 16H8v-3h2v3zm3 1h-2v-1h2v1zm3-1h-2v-3h2v3zm-1-9l4-2 .062 4c.723.867.938 1.782.938 3v1c0 1.844-1.01 3.437-2.494 4.304.304-.351.494-.803.494-1.304v-2a2 2 0 0 0-2-2H8a2 2 0 0 0-2 2v2c0 .501.19.953.494 1.304C5.01 16.437 4 14.844 4 13v-1c0-1.143.355-2.158 1-3V5l4 1.998L15 7z"/>
</svg>
