<svg xmlns="http://www.w3.org/2000/svg" xmlns:xlink="http://www.w3.org/1999/xlink" width="20" height="20" viewBox="0 0 20 20">
    <defs>
        <rect id="prefix__a" width="460" height="36" x="0" y="0" rx="4"/>
    </defs>
    <g fill="none" fill-rule="evenodd">
        <path fill="#FFF" d="M0 0H1440V1024H0z" transform="translate(-498 -864)"/>
        <g transform="translate(-498 -864) translate(490 856)">
            <rect width="459" height="35" x=".5" y=".5" stroke="#000" stroke-opacity=".12" rx="4"/>
            <mask id="prefix__b" fill="#fff">
                <use xlink:href="#prefix__a"/>
            </mask>
            <g mask="url(#prefix__b)">
                <g transform="translate(6 6)">
                    <rect width="24" height="24" fill="#FFF" rx="2"/>
                    <rect width="24" height="24" rx="2"/>
                    <rect width="24" height="24" rx="2"/>
                    <rect width="24" height="24" rx="2"/>
                    <g>
                        <path fill="#4285F4" fill-rule="nonzero" d="M19.6 10.227c0-.709-.064-1.39-.182-2.045H10v3.868h5.382c-.232 1.25-.937 2.31-1.996 3.018v2.51h3.232c1.891-1.742 2.982-4.305 2.982-7.35z" transform="translate(2 2)"/>
                        <path fill="#34A853" fill-rule="nonzero" d="M10 20c2.7 0 4.964-.895 6.618-2.423l-3.232-2.509c-.895.6-2.04.955-3.386.955-2.605 0-4.81-1.76-5.595-4.123H1.064v2.59C2.709 17.76 6.09 20 10 20z" transform="translate(2 2)"/>
                        <path fill="#FBBC05" fill-rule="nonzero" d="M4.405 11.9c-.2-.6-.314-1.24-.314-1.9 0-.66.114-1.3.314-1.9V5.51H1.064C.386 6.86 0 8.385 0 10c0 1.614.386 3.14 1.064 4.49l3.34-2.59z" transform="translate(2 2)"/>
                        <path fill="#EA4335" fill-rule="nonzero" d="M10 3.977c1.468 0 2.786.505 3.823 1.496l2.868-2.868C14.959.99 12.695 0 10 0 6.09 0 2.71 2.24 1.064 5.51l3.34 2.59C5.192 5.736 7.396 3.977 10 3.977z" transform="translate(2 2)"/>
                        <path d="M0 0L20 0 20 20 0 20z" transform="translate(2 2)"/>
                    </g>
                </g>
            </g>
        </g>
        <path stroke="#000" stroke-opacity=".12" d="M400.5 277.5H1039.5V980.5H400.5z" transform="translate(-498 -864)"/>
    </g>
</svg>
