<svg width="24" height="24" viewBox="0 0 24 24" fill="none" xmlns="http://www.w3.org/2000/svg">
<g clip-path="url(#clip0_85_578)">
<path d="M3.20385 8.86558H20.7838C21.3454 8.86558 21.835 8.51398 22.0102 7.98598C22.1494 7.45798 21.9742 6.89638 21.5182 6.57958L12.7294 0.249578C12.2734 -0.0660216 11.6794 -0.0660216 11.2594 0.249578L2.46945 6.57838C2.15505 6.82438 1.94385 7.17598 1.94385 7.59838C1.94385 8.30278 2.50425 8.86558 3.20385 8.86558ZM11.995 2.85118L16.8622 6.33238H7.12785L11.9962 2.85238L11.995 2.85118ZM10.273 17.5212L10.3126 11.8344L7.40145 10.4244V18.93L10.273 17.5212ZM16.6414 18.8904V10.506L13.7698 11.9148V17.6004L16.6414 18.8904Z" fill="#212121"/>
<path d="M23.3182 21.5724H22.2574V20.5116C22.2574 20.1456 21.961 19.848 21.5962 19.848H20.6026V11.3328C20.6026 10.524 19.9426 9.86157 19.1374 9.86157C18.3298 9.86157 17.671 10.524 17.671 11.3328V19.848L6.31896 19.8456V11.3328C6.31896 10.524 5.65896 9.86157 4.85256 9.86157C4.04616 9.86157 3.38736 10.524 3.38736 11.3328V19.8444H2.39616C2.03136 19.8444 1.73496 20.142 1.73496 20.5092V21.5688H0.67416C0.30936 21.5688 0.0141602 21.8664 0.0141602 22.2336V23.3856H23.9758V22.2384C23.977 21.8712 23.683 21.5736 23.3182 21.5724Z" fill="#212121"/>
</g>
<defs>
<clipPath id="clip0_85_578">
<rect width="24" height="24" fill="white"/>
</clipPath>
</defs>
</svg>
