<svg width="40" height="20" viewBox="0 0 40 20" fill="none" xmlns="http://www.w3.org/2000/svg">
<path d="M18.5 20H10C7.23333 20 4.875 19.025 2.925 17.075C0.975 15.125 0 12.7667 0 10C0 7.23333 0.975 4.875 2.925 2.925C4.875 0.975 7.23333 0 10 0H18.5V3H10C8.05567 3 6.40283 3.67933 5.0415 5.038C3.6805 6.397 3 8.047 3 9.988C3 11.9293 3.6805 13.5833 5.0415 14.95C6.40283 16.3167 8.05567 17 10 17H18.5V20ZM12.25 11.5V8.5H27.75V11.5H12.25ZM21.5 20V17H30C31.9443 17 33.5972 16.3207 34.9585 14.962C36.3195 13.603 37 11.953 37 10.012C37 8.07067 36.3195 6.41667 34.9585 5.05C33.5972 3.68333 31.9443 3 30 3H21.5V0H30C32.7667 0 35.125 0.975 37.075 2.925C39.025 4.875 40 7.23333 40 10C40 12.7667 39.025 15.125 37.075 17.075C35.125 19.025 32.7667 20 30 20H21.5Z" fill="white"/>
</svg>
