<?xml version="1.0" encoding="UTF-8"?>
<svg width="208px" height="198px" viewBox="0 0 208 198" version="1.1" xmlns="http://www.w3.org/2000/svg" xmlns:xlink="http://www.w3.org/1999/xlink">
    <!-- Generator: Sketch 61.2 (89653) - https://sketch.com -->
    <title>undraw_no_data_qbuo (1)</title>
    <desc>Created with Sketch.</desc>
    <defs>
        <linearGradient x1="49.9988159%" y1="100%" x2="49.9988159%" y2="0%" id="linearGradient-1">
            <stop stop-color="#808080" stop-opacity="0.25" offset="0%"></stop>
            <stop stop-color="#808080" stop-opacity="0.12" offset="54%"></stop>
            <stop stop-color="#808080" stop-opacity="0.1" offset="100%"></stop>
        </linearGradient>
        <linearGradient x1="50%" y1="100%" x2="50%" y2="0%" id="linearGradient-2">
            <stop stop-color="#808080" stop-opacity="0.25" offset="0%"></stop>
            <stop stop-color="#808080" stop-opacity="0.12" offset="54%"></stop>
            <stop stop-color="#808080" stop-opacity="0.1" offset="100%"></stop>
        </linearGradient>
        <linearGradient x1="59.3739002%" y1="98.8803643%" x2="40.678009%" y2="1.02948481%" id="linearGradient-3">
            <stop stop-color="#808080" stop-opacity="0.25" offset="0%"></stop>
            <stop stop-color="#808080" stop-opacity="0.12" offset="54%"></stop>
            <stop stop-color="#808080" stop-opacity="0.1" offset="100%"></stop>
        </linearGradient>
        <linearGradient x1="49.9988159%" y1="100%" x2="49.9988159%" y2="0%" id="linearGradient-4">
            <stop stop-color="#808080" stop-opacity="0.25" offset="0%"></stop>
            <stop stop-color="#808080" stop-opacity="0.12" offset="54%"></stop>
            <stop stop-color="#808080" stop-opacity="0.1" offset="100%"></stop>
        </linearGradient>
        <linearGradient x1="50%" y1="100%" x2="50%" y2="0%" id="linearGradient-5">
            <stop stop-color="#808080" stop-opacity="0.25" offset="0%"></stop>
            <stop stop-color="#808080" stop-opacity="0.12" offset="54%"></stop>
            <stop stop-color="#808080" stop-opacity="0.1" offset="100%"></stop>
        </linearGradient>
        <linearGradient x1="50%" y1="99.9144422%" x2="50%" y2="-0.0855578371%" id="linearGradient-6">
            <stop stop-color="#808080" stop-opacity="0.25" offset="0%"></stop>
            <stop stop-color="#808080" stop-opacity="0.12" offset="54%"></stop>
            <stop stop-color="#808080" stop-opacity="0.1" offset="100%"></stop>
        </linearGradient>
    </defs>
    <g id="Page-1" stroke="none" stroke-width="1" fill="none" fill-rule="evenodd">
        <g id="Advanced-Search---Closed" transform="translate(-857.000000, -492.000000)" fill-rule="nonzero">
            <g id="undraw_no_data_qbuo-(1)" transform="translate(857.000000, 492.000000)">
                <polygon id="Rectangle" fill="#E0E0E0" transform="translate(87.685526, 97.565109) rotate(-12.110000) translate(-87.685526, -97.565109) " points="32.3350849 21.0345145 143.057215 21.0191362 143.035967 174.095704 32.313837 174.111082"></polygon>
                <g id="Group" opacity="0.5" transform="translate(20.000000, 15.000000)" fill="url(#linearGradient-1)">
                    <polygon id="Rectangle" transform="translate(68.028120, 83.460525) rotate(-12.110000) translate(-68.028120, -83.460525) " points="14.4236579 9.61096133 121.54869 9.67167998 121.632583 157.31009 14.507551 157.249371"></polygon>
                </g>
                <polygon id="Rectangle" fill="#FAFAFA" transform="translate(87.571381, 97.033003) rotate(-12.110000) translate(-87.571381, -97.033003) " points="35.4531909 24.7229605 139.709647 24.7084802 139.689571 169.343046 35.4331149 169.357526"></polygon>
                <polygon id="Rectangle" fill="url(#linearGradient-2)" transform="translate(72.543017, 26.292259) rotate(-12.110000) translate(-72.543017, -26.292259) " points="46.6837256 20.0277278 98.4040489 20.0205443 98.4023088 32.5567906 46.6819855 32.5639741"></polygon>
                <path d="M68.5012528,8.16115012 C64.7239287,9.01154722 62.333993,12.9860618 63.1649552,17.0376515 C63.9959175,21.0892413 67.7291197,23.689247 71.4990902,22.8388499 C75.2690606,21.9884528 77.66635,18.0139382 76.8353877,13.9623485 C76.0044255,9.91075865 72.2785769,7.31075303 68.5012528,8.16115012 Z M70.8715788,19.7481317 C69.2387059,20.1562892 67.5325028,19.4886656 66.554302,18.0588159 C65.5761012,16.6289661 65.5202674,14.7209959 66.4130234,13.2309992 C67.3057794,11.7410025 68.9697381,10.9650359 70.6234074,11.2675386 C72.2770767,11.5700414 73.5918789,12.8909073 73.9503063,14.6097807 C74.1948416,15.719284 74.0074843,16.8851842 73.4296888,17.8495165 C72.8518932,18.8138487 71.9312932,19.497113 70.8715788,19.7481317 Z" id="Shape" fill="url(#linearGradient-3)"></path>
                <polygon id="Rectangle" fill="#2E7F9F" transform="translate(72.372303, 25.496313) rotate(-12.110000) translate(-72.372303, -25.496313) " points="47.0576909 19.5080357 97.6885786 19.5010035 97.6869152 31.4845903 47.0560275 31.4916224"></polygon>
                <path d="M68.5313199,8.15588243 C64.752299,8.96707237 62.346272,12.688416 63.1572329,16.4678525 C63.9681938,20.247289 67.6890658,22.653705 71.4681496,21.8428083 C75.2472334,21.0319117 77.6535492,17.3107548 76.8428815,13.5312554 C76.4535449,11.7160879 75.3591034,10.1299674 73.8003554,9.12187144 C72.2416074,8.11377548 70.3462576,7.76629497 68.5313199,8.15588243 L68.5313199,8.15588243 Z M70.8466298,18.9567483 C69.2491865,19.2995505 67.6025655,18.646178 66.6746424,17.3013207 C65.7467194,15.9564634 65.7202502,14.1849932 66.6075784,12.813007 C67.4949066,11.4410209 69.1212715,10.7387338 70.7282435,11.0336461 C72.3352155,11.3285585 73.606299,12.5625869 73.9487442,14.1602617 C74.4162581,16.3414433 73.0274954,18.488747 70.8466298,18.9567483 L70.8466298,18.9567483 Z" id="Shape" fill="#2E7F9F"></path>
                <rect id="Rectangle" fill="#E0E0E0" x="65" y="29" width="111" height="153"></rect>
                <g id="Group" opacity="0.5" transform="translate(67.000000, 32.000000)" fill="url(#linearGradient-4)">
                    <rect id="Rectangle" x="0.0708274232" y="0.0304109589" width="106.810284" height="147.850479"></rect>
                </g>
                <rect id="Rectangle" fill="#FFFFFF" x="69" y="33" width="104" height="145"></rect>
                <rect id="Rectangle" fill="url(#linearGradient-5)" x="95" y="28" width="52" height="12"></rect>
                <path d="M121,14 C117.134548,14 114,17.3572895 114,21.5 C114,25.6427105 117.134548,29 121,29 C124.865452,29 128,25.6427105 128,21.5 C128,17.3572895 124.865452,14 121,14 Z M121,25.8275154 C119.319094,25.8692604 117.781385,24.8417741 117.110301,23.228447 C116.439217,21.6151198 116.768383,19.7371933 117.94294,18.4781553 C119.117497,17.2191173 120.90357,16.8296642 122.460885,17.4930177 C124.0182,18.1563712 125.036668,19.7404463 125.037141,21.5 C125.053503,23.8537556 123.249079,25.7787867 121,25.8069815 L121,25.8275154 Z" id="Shape" fill="url(#linearGradient-6)"></path>
                <rect id="Rectangle" fill="#2E7F9F" x="95" y="26" width="51" height="12"></rect>
                <path d="M121.000102,15 C118.168908,15 115.616491,16.7054703 114.53304,19.3211528 C113.449589,21.9368353 114.04847,24.9476161 116.050427,26.9495728 C118.052384,28.9515295 121.063165,29.5504111 123.678847,28.4669599 C126.29453,27.3835087 128,24.831092 128,21.9998977 C128,18.1339609 124.866039,15 121.000102,15 L121.000102,15 Z M121.000102,26.0399389 C118.77081,26.0371662 116.965086,24.2291875 116.965086,21.9998936 C116.965086,19.7705997 118.770825,17.9626275 121.000117,17.9598595 C123.229409,17.957098 125.039622,19.7605858 125.045156,21.9898728 C125.044492,23.061793 124.617864,24.0895096 123.859197,24.8467664 C123.10053,25.6040232 122.072022,26.0287379 121.000102,26.0274078 L121.000102,26.0399389 Z" id="Shape" fill="#2E7F9F"></path>
                <g id="Group" opacity="0.5" transform="translate(2.000000, 187.000000)" fill="#47E6B1">
                    <rect id="Rectangle" x="2.10681818" y="0.0113636364" width="1" height="4.84772727"></rect>
                    <polygon id="Rectangle" transform="translate(2.535227, 2.436364) rotate(90.000000) translate(-2.535227, -2.436364) " points="2.10795455 0.0125 2.9625 0.0125 2.9625 4.86022727 2.10795455 4.86022727"></polygon>
                </g>
                <g id="Group" opacity="0.5" transform="translate(113.000000, 0.000000)" fill="#47E6B1">
                    <rect id="Rectangle" x="2.06304348" y="0" width="1" height="4.84772727"></rect>
                    <polygon id="Rectangle" transform="translate(2.472826, 2.422727) rotate(90.000000) translate(-2.472826, -2.422727) " points="2.04555336 0.104249012 2.90009881 0.104249012 2.90009881 4.74120553 2.04555336 4.74120553"></polygon>
                </g>
                <path d="M195.673604,196.033377 C195.161772,195.810571 194.898264,195.239467 195.060903,194.70546 C195.073582,194.666005 195.081584,194.625196 195.084743,194.583874 L195.084743,194.583874 C195.09935,194.341435 194.95341,194.118051 194.725525,194.034036 C194.49764,193.950021 194.241623,194.025212 194.095362,194.219114 L194.095362,194.219114 C194.070571,194.252324 194.049767,194.288332 194.033377,194.326396 C193.810571,194.838228 193.239467,195.101736 192.70546,194.939097 C192.666005,194.926418 192.625196,194.918416 192.583874,194.915257 L192.583874,194.915257 C192.341435,194.90065 192.118051,195.04659 192.034036,195.274475 C191.950021,195.50236 192.025212,195.758377 192.219114,195.904638 L192.219114,195.904638 C192.252324,195.929429 192.288332,195.950233 192.326396,195.966623 C192.838228,196.189429 193.101736,196.760533 192.939097,197.29454 C192.926418,197.333995 192.918416,197.374804 192.915257,197.416126 L192.915257,197.416126 C192.90065,197.658565 193.04659,197.881949 193.274475,197.965964 C193.50236,198.049979 193.758377,197.974788 193.904638,197.780886 L193.904638,197.780886 C193.929429,197.747676 193.950233,197.711668 193.966623,197.673604 C194.189429,197.161772 194.760533,196.898264 195.29454,197.060903 C195.333995,197.073582 195.374804,197.081584 195.416126,197.084743 L195.416126,197.084743 C195.658565,197.09935 195.881949,196.95341 195.965964,196.725525 C196.049979,196.49764 195.974788,196.241623 195.780886,196.095362 L195.780886,196.095362 C195.747676,196.070571 195.711668,196.049767 195.673604,196.033377 Z" id="Path" fill="#4D8AF0" opacity="0.5"></path>
                <path d="M34.6736038,144.033377 C34.1617719,143.810571 33.8982642,143.239467 34.0609027,142.70546 C34.0735825,142.666005 34.0815841,142.625196 34.0847432,142.583874 L34.0847432,142.583874 C34.0993499,142.341435 33.9534098,142.118051 33.725525,142.034036 C33.4976403,141.950021 33.241623,142.025212 33.095362,142.219114 L33.095362,142.219114 C33.0705712,142.252324 33.0497669,142.288332 33.0333767,142.326396 C32.8105711,142.838228 32.2394668,143.101736 31.7054603,142.939097 C31.6660046,142.926418 31.6251962,142.918416 31.5838737,142.915257 L31.5838737,142.915257 C31.3414347,142.90065 31.1180513,143.04659 31.0340359,143.274475 C30.9500206,143.50236 31.0252125,143.758377 31.2191139,143.904638 L31.2191139,143.904638 C31.2523245,143.929429 31.2883319,143.950233 31.3263962,143.966623 C31.8382281,144.189429 32.1017358,144.760533 31.9390973,145.29454 C31.9264175,145.333995 31.9184159,145.374804 31.9152568,145.416126 L31.9152568,145.416126 C31.9006501,145.658565 32.0465902,145.881949 32.274475,145.965964 C32.5023597,146.049979 32.758377,145.974788 32.904638,145.780886 L32.904638,145.780886 C32.9294288,145.747676 32.9502331,145.711668 32.9666233,145.673604 C33.1894289,145.161772 33.7605332,144.898264 34.2945397,145.060903 C34.3339954,145.073582 34.3748038,145.081584 34.4161263,145.084743 L34.4161263,145.084743 C34.6585653,145.09935 34.8819487,144.95341 34.9659641,144.725525 C35.0499794,144.49764 34.9747875,144.241623 34.7808861,144.095362 L34.7808861,144.095362 C34.7476755,144.070571 34.7116681,144.049767 34.6736038,144.033377 Z" id="Path" fill="#FDD835" opacity="0.5"></path>
                <path d="M168.673604,17.0333767 C168.161772,16.8105711 167.898264,16.2394668 168.060903,15.7054603 C168.073582,15.6660046 168.081584,15.6251962 168.084743,15.5838737 L168.084743,15.5838737 C168.09935,15.3414347 167.95341,15.1180513 167.725525,15.0340359 C167.49764,14.9500206 167.241623,15.0252125 167.095362,15.2191139 L167.095362,15.2191139 C167.070571,15.2523245 167.049767,15.2883319 167.033377,15.3263962 C166.810571,15.8382281 166.239467,16.1017358 165.70546,15.9390973 C165.666005,15.9264175 165.625196,15.9184159 165.583874,15.9152568 L165.583874,15.9152568 C165.341435,15.9006501 165.118051,16.0465902 165.034036,16.274475 C164.950021,16.5023597 165.025212,16.758377 165.219114,16.904638 L165.219114,16.904638 C165.252324,16.9294288 165.288332,16.9502331 165.326396,16.9666233 C165.838228,17.1894289 166.101736,17.7605332 165.939097,18.2945397 C165.926418,18.3339954 165.918416,18.3748038 165.915257,18.4161263 L165.915257,18.4161263 C165.90065,18.6585653 166.04659,18.8819487 166.274475,18.9659641 C166.50236,19.0499794 166.758377,18.9747875 166.904638,18.7808861 L166.904638,18.7808861 C166.929429,18.7476755 166.950233,18.7116681 166.966623,18.6736038 C167.189429,18.1617719 167.760533,17.8982642 168.29454,18.0609027 C168.333995,18.0735825 168.374804,18.0815841 168.416126,18.0847432 L168.416126,18.0847432 C168.658565,18.0993499 168.881949,17.9534098 168.965964,17.725525 C169.049979,17.4976403 168.974788,17.241623 168.780886,17.095362 L168.780886,17.095362 C168.747676,17.0705712 168.711668,17.0497669 168.673604,17.0333767 L168.673604,17.0333767 Z" id="Path" fill="#FDD835" opacity="0.5"></path>
                <circle id="Oval" fill="#F55F44" opacity="0.5" cx="206" cy="80" r="2"></circle>
                <circle id="Oval" fill="#F55F44" opacity="0.5" cx="58" cy="189" r="2"></circle>
                <circle id="Oval" fill="#F55F44" opacity="0.5" cx="186" cy="121" r="2"></circle>
                <circle id="Oval" fill="#4D8AF0" opacity="0.5" cx="22" cy="24" r="2"></circle>
                <circle id="Oval" fill="#47E6B1" opacity="0.5" cx="2" cy="77" r="2"></circle>
            </g>
        </g>
    </g>
</svg>