<svg width="19" height="24" viewBox="0 0 19 24" fill="none" xmlns="http://www.w3.org/2000/svg">
<path d="M0 20.3125V18.3332H2.375V9.54573C2.375 7.88996 2.86653 6.41054 3.84958 5.10745C4.83243 3.80457 6.12216 2.975 7.71875 2.61875V1.90625C7.71875 1.41146 7.89193 0.990885 8.23828 0.644531C8.58464 0.298177 9.00521 0.125 9.5 0.125C9.99479 0.125 10.4154 0.298177 10.7617 0.644531C11.1081 0.990885 11.2812 1.41146 11.2812 1.90625V2.61875C12.8778 2.975 14.1676 3.80457 15.1504 5.10745C16.1335 6.41054 16.625 7.88996 16.625 9.54573V18.3332H19V20.3125H0ZM9.5 23.875C8.84688 23.875 8.28776 23.6424 7.82266 23.1773C7.35755 22.7122 7.125 22.1531 7.125 21.5H11.875C11.875 22.1531 11.6424 22.7122 11.1773 23.1773C10.7122 23.6424 10.1531 23.875 9.5 23.875ZM4.35427 18.3332H14.6457V9.54573C14.6457 8.12073 14.1444 6.90691 13.1418 5.90426C12.1389 4.90142 10.925 4.4 9.5 4.4C8.075 4.4 6.86108 4.90142 5.85823 5.90426C4.85559 6.90691 4.35427 8.12073 4.35427 9.54573V18.3332Z" fill="#212121"/>
</svg>
