<svg width="20" height="24" viewBox="0 0 20 24" fill="none" xmlns="http://www.w3.org/2000/svg">
<path d="M9.41177 23.7648C8.76471 23.7648 8.21078 23.5344 7.75 23.0736C7.28922 22.6128 7.05882 22.0589 7.05882 21.4118H11.7647C11.7647 22.0589 11.5343 22.6128 11.0735 23.0736C10.6127 23.5344 10.0588 23.7648 9.41177 23.7648ZM0 20.2354V17.8824H2.35294V9.64712C2.35294 8.01967 2.84314 6.57359 3.82353 5.30888C4.80392 4.04418 6.07843 3.21574 7.64706 2.82359V2.00006C7.64706 1.50986 7.81863 1.09319 8.16177 0.750057C8.5049 0.40692 8.92157 0.235352 9.41177 0.235352C9.90196 0.235352 10.3186 0.40692 10.6618 0.750057C11.0049 1.09319 11.1765 1.50986 11.1765 2.00006V2.38241C10.9608 2.81378 10.8039 3.25496 10.7059 3.70594C10.6078 4.15692 10.5686 4.6177 10.5882 5.08829C10.3922 5.04908 10.201 5.01476 10.0147 4.98535C9.82843 4.95594 9.62745 4.94123 9.41177 4.94123C8.11765 4.94123 7.0098 5.40202 6.08824 6.32359C5.16667 7.24516 4.70588 8.353 4.70588 9.64712V17.8824H14.1176V10.3236C14.4706 10.4804 14.848 10.603 15.25 10.6912C15.652 10.7795 16.0588 10.8236 16.4706 10.8236V17.8824H18.8235V20.2354H0ZM16.4706 8.47065C15.4902 8.47065 14.6569 8.12751 13.9706 7.44123C13.2843 6.75496 12.9412 5.92163 12.9412 4.94123C12.9412 3.96084 13.2843 3.12751 13.9706 2.44123C14.6569 1.75496 15.4902 1.41182 16.4706 1.41182C17.451 1.41182 18.2843 1.75496 18.9706 2.44123C19.6569 3.12751 20 3.96084 20 4.94123C20 5.92163 19.6569 6.75496 18.9706 7.44123C18.2843 8.12751 17.451 8.47065 16.4706 8.47065Z" fill="#D32F2F"/>
</svg>
