<svg xmlns="http://www.w3.org/2000/svg" viewBox="0 0 103.487 31.047">
  <defs>
    <style>
      .cls-1 {
        fill: #808083;
      }

      .cls-2 {
        fill: #a5cd39;
      }
    </style>
  </defs>
  <g id="logo" transform="translate(24.629 -15.24)">
    <g id="Group_368" data-name="Group 368" transform="translate(-24.629 15.24)">
      <g id="Group_147" data-name="Group 147">
        <g id="orcid-logo">
          <path id="Path_2111" data-name="Path 2111" class="cls-1" d="M12.7,9.3c7.78,0,12.771,5.578,12.771,12.11,0,6.385-4.771,12.11-12.771,12.11C4.917,33.594,0,27.869,0,21.484,0,14.878,5.064,9.3,12.7,9.3Zm0,21.211a8.894,8.894,0,0,0,9.248-9.028A8.852,8.852,0,0,0,12.7,12.456a8.833,8.833,0,0,0-9.174,9.028A8.876,8.876,0,0,0,12.7,30.511Z" transform="translate(0 -2.474)"/>
          <path id="Path_2112" data-name="Path 2112" class="cls-1" d="M45.845,9.8c4.771,0,7.78,2.569,7.78,6.606a5.926,5.926,0,0,1-3.963,5.8c2.128,1.395,3.45,3.6,5.284,6.532,1.028,1.615,1.615,2.422,3.229,4.7H54.139l-3.156-4.844c-3.156-4.844-4.551-5.431-6.312-5.431H43.276V33.433H39.9V9.8ZM43.276,20.075h2.2c3.67,0,4.7-1.908,4.624-3.817,0-2.2-1.321-3.6-4.624-3.6h-2.2Z" transform="translate(-10.615 -2.607)"/>
          <path id="Path_2113" data-name="Path 2113" class="cls-1" d="M85.738,14.851a15.85,15.85,0,0,0-8.147-2.5c-5.431,0-9.468,3.817-9.468,9.028,0,5.284,3.89,8.954,9.541,8.954A16.181,16.181,0,0,0,85.958,27.7v3.743a17.052,17.052,0,0,1-8.587,2.055c-8.881,0-12.771-6.826-12.771-11.817C64.6,14.484,70.031,9.2,77.591,9.2a21.184,21.184,0,0,1,8.147,1.908Z" transform="translate(-17.187 -2.448)"/>
          <path id="Path_2114" data-name="Path 2114" class="cls-2" d="M111.3,9.8h9.174c8.734,0,12.624,6.239,12.624,11.817,0,6.092-4.771,11.817-12.551,11.817H111.3Zm3.376,20.551h5.431c7.707,0,9.468-5.872,9.468-8.807,0-4.771-3.009-8.807-9.615-8.807H114.75V30.351Z" transform="translate(-29.611 -2.607)"/>
          <g id="Group_19" data-name="Group 19" transform="translate(73.028)">
            <path id="Path_2115" data-name="Path 2115" class="cls-2" d="M103.576,33.433H100.2V9.8h3.376V33.433Z" transform="translate(-99.686 -2.607)"/>
            <path id="Path_2116" data-name="Path 2116" class="cls-2" d="M103.9,2.2a2.2,2.2,0,1,1-4.4,0A2.258,2.258,0,0,1,101.7,0,2.208,2.208,0,0,1,103.9,2.2Z" transform="translate(-99.5)"/>
          </g>
        </g>
      </g>
    </g>
  </g>
</svg>
