<?xml version="1.0" encoding="UTF-8"?>
<svg width="744px" height="450px" viewBox="0 0 744 450" version="1.1"
    xmlns="http://www.w3.org/2000/svg"
    xmlns:xlink="http://www.w3.org/1999/xlink">
    <!-- Generator: sketchtool 53.1 (72631) - https://sketchapp.com -->
    <title>Orcid logo</title>
    <desc>Created with sketchtool.</desc>
    <g id="Page-1" stroke="none" stroke-width="1" fill="none" fill-rule="evenodd">
        <g id="homepage-new-header" transform="translate(-1127.000000, -1310.000000)" fill-rule="nonzero">
            <g id="members-section" transform="translate(0.000000, 1310.000000)">
                <g id="vector_iD_icon">
                    <g transform="translate(1127.000000, -147.000000)">
                        <path d="M744,372 C744,577.471875 577.471875,744 372,744 C166.528125,744 0,577.471875 0,372 C0,166.528125 166.528125,0 372,0 C577.471875,0 744,166.528125 744,372 Z" id="Path" fill-opacity="0.07" fill="#A6CE39"></path>
                        <g id="Group" transform="translate(199.000000, 135.000000)" fill="#FFFFFF">
                            <polygon id="Path" points="52.0074433 405.936543 7.17987316 405.936543 7.17987316 94.8755133 52.0074433 94.8755133 52.0074433 235.448378 52.0074433 405.936543"></polygon>
                            <path d="M117.793358,94.8755133 L238.886015,94.8755133 C354.156909,94.8755133 404.806242,177.069978 404.806242,250.551248 C404.806242,330.422194 342.222296,406.226983 239.468191,406.226983 L117.793358,406.226983 L117.793358,94.8755133 Z M162.620928,365.855851 L233.937517,365.855851 C335.52727,365.855851 358.814319,288.889302 358.814319,250.551248 C358.814319,188.10669 318.935247,135.246646 231.608812,135.246646 L162.620928,135.246646 L162.620928,365.855851 Z" id="Shape"></path>
                            <path d="M58.9935581,30.1074369 C58.9935581,46.0816262 45.8945928,59.4418571 29.5936582,59.4418571 C13.2927236,59.4418571 0.193758344,46.0816262 0.193758344,30.1074369 C0.193758344,13.8428079 13.2927236,0.773016709 29.5936582,0.773016709 C45.8945928,0.773016709 58.9935581,14.1332477 58.9935581,30.1074369 Z" id="Path"></path>
                        </g>
                    </g>
                </g>
            </g>
        </g>
    </g>
</svg>