<svg width="80" height="80" viewBox="0 0 80 80" fill="none" xmlns="http://www.w3.org/2000/svg">
<circle cx="40" cy="40" r="40" fill="#EEEEEE"/>
<path d="M17.5 60V23.2895H33.75V17.2368L41.1842 10L48.6184 17.2368V34.2105H64.8684V60H17.5ZM21.4474 56.0526H28.4211V49.0789H21.4474V56.0526ZM21.4474 45.1316H28.4211V38.1579H21.4474V45.1316ZM21.4474 34.2105H28.4211V27.2368H21.4474V34.2105ZM37.6974 56.0526H44.6711V49.0789H37.6974V56.0526ZM37.6974 45.1316H44.6711V38.1579H37.6974V45.1316ZM37.6974 34.2105H44.6711V27.2368H37.6974V34.2105ZM37.6974 23.2895H44.6711V16.3158H37.6974V23.2895ZM53.9474 56.0526H60.9211V49.0789H53.9474V56.0526ZM53.9474 45.1316H60.9211V38.1579H53.9474V45.1316Z" fill="white"/>
</svg>
