<svg width="32" height="32" viewBox="0 0 32 32" fill="none" xmlns="http://www.w3.org/2000/svg">
<circle cx="16" cy="16" r="16" fill="#0D47A1"/>
<path d="M7.25003 13.6499C7.13336 13.5666 7.06253 13.4624 7.03753 13.3374C7.01253 13.2124 7.05003 13.0832 7.15003 12.9499C8.18336 11.5332 9.4792 10.4332 11.0375 9.6499C12.5959 8.86657 14.2584 8.4749 16.025 8.4749C17.7917 8.4749 19.4584 8.85407 21.025 9.6124C22.5917 10.3707 23.9 11.4666 24.95 12.8999C25.0667 13.0499 25.1042 13.1832 25.0625 13.2999C25.0209 13.4166 24.95 13.5166 24.85 13.5999C24.75 13.6832 24.6334 13.7207 24.5 13.7124C24.3667 13.7041 24.25 13.6332 24.15 13.4999C23.2334 12.1999 22.0542 11.2041 20.6125 10.5124C19.1709 9.82074 17.6417 9.4749 16.025 9.4749C14.4084 9.4749 12.8917 9.82074 11.475 10.5124C10.0584 11.2041 8.88336 12.1999 7.95003 13.4999C7.85003 13.6499 7.73336 13.7332 7.60003 13.7499C7.4667 13.7666 7.35003 13.7332 7.25003 13.6499ZM18.85 25.9749C17.1167 25.5416 15.7 24.6791 14.6 23.3874C13.5 22.0957 12.95 20.5166 12.95 18.6499C12.95 17.8166 13.25 17.1166 13.85 16.5499C14.45 15.9832 15.175 15.6999 16.025 15.6999C16.875 15.6999 17.6 15.9832 18.2 16.5499C18.8 17.1166 19.1 17.8166 19.1 18.6499C19.1 19.1999 19.3084 19.6624 19.725 20.0374C20.1417 20.4124 20.6334 20.5999 21.2 20.5999C21.7667 20.5999 22.25 20.4124 22.65 20.0374C23.05 19.6624 23.25 19.1999 23.25 18.6499C23.25 16.7166 22.5417 15.0916 21.125 13.7749C19.7084 12.4582 18.0167 11.7999 16.05 11.7999C14.0834 11.7999 12.3917 12.4582 10.975 13.7749C9.55836 15.0916 8.85003 16.7082 8.85003 18.6249C8.85003 19.0249 8.88753 19.5249 8.96253 20.1249C9.03753 20.7249 9.2167 21.4249 9.50003 22.2249C9.55003 22.3749 9.54586 22.5082 9.48753 22.6249C9.4292 22.7416 9.33336 22.8249 9.20003 22.8749C9.0667 22.9249 8.93753 22.9207 8.81253 22.8624C8.68753 22.8041 8.60003 22.7082 8.55003 22.5749C8.30003 21.9249 8.12086 21.2791 8.01253 20.6374C7.9042 19.9957 7.85003 19.3332 7.85003 18.6499C7.85003 16.4332 8.6542 14.5749 10.2625 13.0749C11.8709 11.5749 13.7917 10.8249 16.025 10.8249C18.275 10.8249 20.2084 11.5749 21.825 13.0749C23.4417 14.5749 24.25 16.4332 24.25 18.6499C24.25 19.4832 23.9542 20.1791 23.3625 20.7374C22.7709 21.2957 22.05 21.5749 21.2 21.5749C20.35 21.5749 19.6209 21.2957 19.0125 20.7374C18.4042 20.1791 18.1 19.4832 18.1 18.6499C18.1 18.0999 17.8959 17.6374 17.4875 17.2624C17.0792 16.8874 16.5917 16.6999 16.025 16.6999C15.4584 16.6999 14.9709 16.8874 14.5625 17.2624C14.1542 17.6374 13.95 18.0999 13.95 18.6499C13.95 20.2666 14.4292 21.6166 15.3875 22.6999C16.3459 23.7832 17.5834 24.5416 19.1 24.9749C19.25 25.0249 19.35 25.1082 19.4 25.2249C19.45 25.3416 19.4584 25.4666 19.425 25.5999C19.3917 25.7166 19.325 25.8166 19.225 25.8999C19.125 25.9832 19 26.0082 18.85 25.9749ZM10.5 8.4249C10.3667 8.50824 10.2334 8.52907 10.1 8.4874C9.9667 8.44574 9.8667 8.35824 9.80003 8.2249C9.73336 8.09157 9.7167 7.97074 9.75003 7.8624C9.78336 7.75407 9.8667 7.65824 10 7.5749C10.9334 7.0749 11.9084 6.69157 12.925 6.4249C13.9417 6.15824 14.975 6.0249 16.025 6.0249C17.0917 6.0249 18.1334 6.15407 19.15 6.4124C20.1667 6.67074 21.15 7.04157 22.1 7.5249C22.25 7.60824 22.3375 7.70824 22.3625 7.8249C22.3875 7.94157 22.375 8.05824 22.325 8.1749C22.275 8.29157 22.1917 8.38324 22.075 8.4499C21.9584 8.51657 21.8167 8.50824 21.65 8.4249C20.7667 7.9749 19.8542 7.62907 18.9125 7.3874C17.9709 7.14574 17.0084 7.0249 16.025 7.0249C15.0584 7.0249 14.1084 7.1374 13.175 7.3624C12.2417 7.5874 11.35 7.94157 10.5 8.4249ZM13.45 25.6249C12.4667 24.5916 11.7125 23.5374 11.1875 22.4624C10.6625 21.3874 10.4 20.1166 10.4 18.6499C10.4 17.1332 10.95 15.8541 12.05 14.8124C13.15 13.7707 14.475 13.2499 16.025 13.2499C17.575 13.2499 18.9084 13.7707 20.025 14.8124C21.1417 15.8541 21.7 17.1332 21.7 18.6499C21.7 18.7999 21.6542 18.9207 21.5625 19.0124C21.4709 19.1041 21.35 19.1499 21.2 19.1499C21.0667 19.1499 20.95 19.1041 20.85 19.0124C20.75 18.9207 20.7 18.7999 20.7 18.6499C20.7 17.3999 20.2375 16.3541 19.3125 15.5124C18.3875 14.6707 17.2917 14.2499 16.025 14.2499C14.7584 14.2499 13.6709 14.6707 12.7625 15.5124C11.8542 16.3541 11.4 17.3999 11.4 18.6499C11.4 19.9999 11.6334 21.1457 12.1 22.0874C12.5667 23.0291 13.25 23.9749 14.15 24.9249C14.25 25.0249 14.3 25.1416 14.3 25.2749C14.3 25.4082 14.25 25.5249 14.15 25.6249C14.05 25.7249 13.9334 25.7749 13.8 25.7749C13.6667 25.7749 13.55 25.7249 13.45 25.6249ZM21 23.9249C19.5167 23.9249 18.2292 23.4249 17.1375 22.4249C16.0459 21.4249 15.5 20.1666 15.5 18.6499C15.5 18.5166 15.5459 18.3999 15.6375 18.2999C15.7292 18.1999 15.85 18.1499 16 18.1499C16.15 18.1499 16.2709 18.1999 16.3625 18.2999C16.4542 18.3999 16.5 18.5166 16.5 18.6499C16.5 19.8999 16.95 20.9249 17.85 21.7249C18.75 22.5249 19.8 22.9249 21 22.9249C21.1 22.9249 21.2417 22.9166 21.425 22.8999C21.6084 22.8832 21.8 22.8582 22 22.8249C22.15 22.7916 22.2792 22.8124 22.3875 22.8874C22.4959 22.9624 22.5667 23.0749 22.6 23.2249C22.6334 23.3582 22.6084 23.4749 22.525 23.5749C22.4417 23.6749 22.3334 23.7416 22.2 23.7749C21.9 23.8582 21.6375 23.9041 21.4125 23.9124C21.1875 23.9207 21.05 23.9249 21 23.9249Z" fill="white"/>
</svg>
