<svg width="24" height="24" viewBox="0 0 24 24" fill="none" xmlns="http://www.w3.org/2000/svg">
<g id="fingerprint_FILL0_wght400_GRAD0_opsz24 1">
<path id="Vector" d="M3.25003 9.6499C3.13336 9.56657 3.06253 9.4624 3.03753 9.3374C3.01253 9.2124 3.05003 9.08324 3.15003 8.9499C4.18336 7.53324 5.4792 6.43324 7.03753 5.6499C8.59586 4.86657 10.2584 4.4749 12.025 4.4749C13.7917 4.4749 15.4584 4.85407 17.025 5.6124C18.5917 6.37074 19.9 7.46657 20.95 8.8999C21.0667 9.0499 21.1042 9.18324 21.0625 9.2999C21.0209 9.41657 20.95 9.51657 20.85 9.5999C20.75 9.68324 20.6334 9.72074 20.5 9.7124C20.3667 9.70407 20.25 9.63324 20.15 9.4999C19.2334 8.1999 18.0542 7.20407 16.6125 6.5124C15.1709 5.82074 13.6417 5.4749 12.025 5.4749C10.4084 5.4749 8.8917 5.82074 7.47503 6.5124C6.05836 7.20407 4.88336 8.1999 3.95003 9.4999C3.85003 9.6499 3.73336 9.73324 3.60003 9.7499C3.4667 9.76657 3.35003 9.73324 3.25003 9.6499ZM14.85 21.9749C13.1167 21.5416 11.7 20.6791 10.6 19.3874C9.50003 18.0957 8.95003 16.5166 8.95003 14.6499C8.95003 13.8166 9.25003 13.1166 9.85003 12.5499C10.45 11.9832 11.175 11.6999 12.025 11.6999C12.875 11.6999 13.6 11.9832 14.2 12.5499C14.8 13.1166 15.1 13.8166 15.1 14.6499C15.1 15.1999 15.3084 15.6624 15.725 16.0374C16.1417 16.4124 16.6334 16.5999 17.2 16.5999C17.7667 16.5999 18.25 16.4124 18.65 16.0374C19.05 15.6624 19.25 15.1999 19.25 14.6499C19.25 12.7166 18.5417 11.0916 17.125 9.7749C15.7084 8.45824 14.0167 7.7999 12.05 7.7999C10.0834 7.7999 8.3917 8.45824 6.97503 9.7749C5.55836 11.0916 4.85003 12.7082 4.85003 14.6249C4.85003 15.0249 4.88753 15.5249 4.96253 16.1249C5.03753 16.7249 5.2167 17.4249 5.50003 18.2249C5.55003 18.3749 5.54586 18.5082 5.48753 18.6249C5.4292 18.7416 5.33336 18.8249 5.20003 18.8749C5.0667 18.9249 4.93753 18.9207 4.81253 18.8624C4.68753 18.8041 4.60003 18.7082 4.55003 18.5749C4.30003 17.9249 4.12086 17.2791 4.01253 16.6374C3.9042 15.9957 3.85003 15.3332 3.85003 14.6499C3.85003 12.4332 4.6542 10.5749 6.26253 9.0749C7.87086 7.5749 9.7917 6.8249 12.025 6.8249C14.275 6.8249 16.2084 7.5749 17.825 9.0749C19.4417 10.5749 20.25 12.4332 20.25 14.6499C20.25 15.4832 19.9542 16.1791 19.3625 16.7374C18.7709 17.2957 18.05 17.5749 17.2 17.5749C16.35 17.5749 15.6209 17.2957 15.0125 16.7374C14.4042 16.1791 14.1 15.4832 14.1 14.6499C14.1 14.0999 13.8959 13.6374 13.4875 13.2624C13.0792 12.8874 12.5917 12.6999 12.025 12.6999C11.4584 12.6999 10.9709 12.8874 10.5625 13.2624C10.1542 13.6374 9.95003 14.0999 9.95003 14.6499C9.95003 16.2666 10.4292 17.6166 11.3875 18.6999C12.3459 19.7832 13.5834 20.5416 15.1 20.9749C15.25 21.0249 15.35 21.1082 15.4 21.2249C15.45 21.3416 15.4584 21.4666 15.425 21.5999C15.3917 21.7166 15.325 21.8166 15.225 21.8999C15.125 21.9832 15 22.0082 14.85 21.9749ZM6.50003 4.4249C6.3667 4.50824 6.23336 4.52907 6.10003 4.4874C5.9667 4.44574 5.8667 4.35824 5.80003 4.2249C5.73336 4.09157 5.7167 3.97074 5.75003 3.8624C5.78336 3.75407 5.8667 3.65824 6.00003 3.5749C6.93336 3.0749 7.90836 2.69157 8.92503 2.4249C9.9417 2.15824 10.975 2.0249 12.025 2.0249C13.0917 2.0249 14.1334 2.15407 15.15 2.4124C16.1667 2.67074 17.15 3.04157 18.1 3.5249C18.25 3.60824 18.3375 3.70824 18.3625 3.8249C18.3875 3.94157 18.375 4.05824 18.325 4.1749C18.275 4.29157 18.1917 4.38324 18.075 4.4499C17.9584 4.51657 17.8167 4.50824 17.65 4.4249C16.7667 3.9749 15.8542 3.62907 14.9125 3.3874C13.9709 3.14574 13.0084 3.0249 12.025 3.0249C11.0584 3.0249 10.1084 3.1374 9.17503 3.3624C8.2417 3.5874 7.35003 3.94157 6.50003 4.4249ZM9.45003 21.6249C8.4667 20.5916 7.71253 19.5374 7.18753 18.4624C6.66253 17.3874 6.40003 16.1166 6.40003 14.6499C6.40003 13.1332 6.95003 11.8541 8.05003 10.8124C9.15003 9.77074 10.475 9.2499 12.025 9.2499C13.575 9.2499 14.9084 9.77074 16.025 10.8124C17.1417 11.8541 17.7 13.1332 17.7 14.6499C17.7 14.7999 17.6542 14.9207 17.5625 15.0124C17.4709 15.1041 17.35 15.1499 17.2 15.1499C17.0667 15.1499 16.95 15.1041 16.85 15.0124C16.75 14.9207 16.7 14.7999 16.7 14.6499C16.7 13.3999 16.2375 12.3541 15.3125 11.5124C14.3875 10.6707 13.2917 10.2499 12.025 10.2499C10.7584 10.2499 9.67086 10.6707 8.76253 11.5124C7.8542 12.3541 7.40003 13.3999 7.40003 14.6499C7.40003 15.9999 7.63336 17.1457 8.10003 18.0874C8.5667 19.0291 9.25003 19.9749 10.15 20.9249C10.25 21.0249 10.3 21.1416 10.3 21.2749C10.3 21.4082 10.25 21.5249 10.15 21.6249C10.05 21.7249 9.93336 21.7749 9.80003 21.7749C9.6667 21.7749 9.55003 21.7249 9.45003 21.6249ZM17 19.9249C15.5167 19.9249 14.2292 19.4249 13.1375 18.4249C12.0459 17.4249 11.5 16.1666 11.5 14.6499C11.5 14.5166 11.5459 14.3999 11.6375 14.2999C11.7292 14.1999 11.85 14.1499 12 14.1499C12.15 14.1499 12.2709 14.1999 12.3625 14.2999C12.4542 14.3999 12.5 14.5166 12.5 14.6499C12.5 15.8999 12.95 16.9249 13.85 17.7249C14.75 18.5249 15.8 18.9249 17 18.9249C17.1 18.9249 17.2417 18.9166 17.425 18.8999C17.6084 18.8832 17.8 18.8582 18 18.8249C18.15 18.7916 18.2792 18.8124 18.3875 18.8874C18.4959 18.9624 18.5667 19.0749 18.6 19.2249C18.6334 19.3582 18.6084 19.4749 18.525 19.5749C18.4417 19.6749 18.3334 19.7416 18.2 19.7749C17.9 19.8582 17.6375 19.9041 17.4125 19.9124C17.1875 19.9207 17.05 19.9249 17 19.9249Z" fill="white"/>
</g>
</svg>
