<svg width="32" height="32" viewBox="0 0 32 32" fill="none" xmlns="http://www.w3.org/2000/svg">
<circle cx="16" cy="16" r="16" fill="#0D47A1"/>
<path d="M8 24C7.45 24 6.97917 23.8042 6.5875 23.4125C6.19583 23.0208 6 22.55 6 22V11C6 10.45 6.19583 9.97917 6.5875 9.5875C6.97917 9.19583 7.45 9 8 9H12V7C12 6.45 12.1958 5.97917 12.5875 5.5875C12.9792 5.19583 13.45 5 14 5H18C18.55 5 19.0208 5.19583 19.4125 5.5875C19.8042 5.97917 20 6.45 20 7V9H24C24.55 9 25.0208 9.19583 25.4125 9.5875C25.8042 9.97917 26 10.45 26 11V22C26 22.55 25.8042 23.0208 25.4125 23.4125C25.0208 23.8042 24.55 24 24 24H8ZM8 22H24V11H8V22ZM14 9H18V7H14V9Z" fill="white"/>
</svg>
