<svg width="32" height="32" viewBox="0 0 32 32" fill="none" xmlns="http://www.w3.org/2000/svg">
<circle cx="16" cy="16" r="16" fill="#0D47A1"/>
<path d="M7 24V9.31579H13.5V6.89474L16.4737 4L19.4474 6.89474V13.6842H25.9474V24H7ZM8.57895 22.4211H11.3684V19.6316H8.57895V22.4211ZM8.57895 18.0526H11.3684V15.2632H8.57895V18.0526ZM8.57895 13.6842H11.3684V10.8947H8.57895V13.6842ZM15.0789 22.4211H17.8684V19.6316H15.0789V22.4211ZM15.0789 18.0526H17.8684V15.2632H15.0789V18.0526ZM15.0789 13.6842H17.8684V10.8947H15.0789V13.6842ZM15.0789 9.31579H17.8684V6.52632H15.0789V9.31579ZM21.5789 22.4211H24.3684V19.6316H21.5789V22.4211ZM21.5789 18.0526H24.3684V15.2632H21.5789V18.0526Z" fill="white"/>
</svg>
