<svg width="24" height="23" viewBox="0 0 24 23" fill="none" xmlns="http://www.w3.org/2000/svg">
<path d="M18.2857 22.8571H5.71429V8L13.7143 0L15.1429 1.42857C15.2762 1.5619 15.3857 1.74286 15.4714 1.97143C15.5571 2.2 15.6 2.41905 15.6 2.62857V3.02857L14.3429 8H21.7143C22.3238 8 22.8571 8.22857 23.3143 8.68571C23.7714 9.14286 24 9.67619 24 10.2857V12.5714C24 12.7048 23.981 12.8476 23.9429 13C23.9048 13.1524 23.8667 13.2952 23.8286 13.4286L20.4 21.4857C20.2286 21.8667 19.9429 22.1905 19.5429 22.4571C19.1429 22.7238 18.7238 22.8571 18.2857 22.8571ZM8 20.5714H18.2857L21.7143 12.5714V10.2857H11.4286L12.9714 4L8 8.97143V20.5714ZM5.71429 8V10.2857H2.28571V20.5714H5.71429V22.8571H0V8H5.71429Z" fill="#7FAA26"/>
</svg>
