<svg width="36" height="30" viewBox="0 0 36 30" fill="none" xmlns="http://www.w3.org/2000/svg">
<path d="M2 13C0.89543 13 0 13.8954 0 15C0 16.1046 0.89543 17 2 17V13ZM35.4142 16.4142C36.1953 15.6332 36.1953 14.3668 35.4142 13.5858L22.6863 0.857864C21.9052 0.0768156 20.6389 0.0768156 19.8579 0.857864C19.0768 1.63891 19.0768 2.90524 19.8579 3.68629L31.1716 15L19.8579 26.3137C19.0768 27.0948 19.0768 28.3611 19.8579 29.1421C20.6389 29.9232 21.9052 29.9232 22.6863 29.1421L35.4142 16.4142ZM2 17H34V13H2V17Z" fill="#EEEEEE"/>
</svg>
