<svg width="32" height="33" viewBox="0 0 32 33" fill="none" xmlns="http://www.w3.org/2000/svg">
<path d="M13.6874 23.9266L24.7427 12.8713L22.2609 10.3895L13.6874 18.963L9.51351 14.7891L7.06933 17.2709L13.6874 23.9266ZM15.9865 32.5C13.7769 32.5 11.7009 32.0854 9.75831 31.2561C7.816 30.4266 6.11873 29.2857 4.66651 27.8335C3.21429 26.3813 2.07342 24.6858 1.2439 22.747C0.414634 20.8079 0 18.7336 0 16.5241C0 14.2895 0.414634 12.2009 1.2439 10.2583C2.07342 8.316 3.21228 6.62425 4.66049 5.18305C6.1087 3.74211 7.80321 2.60137 9.74402 1.76082C11.6851 0.920275 13.7614 0.5 15.9729 0.5C18.2095 0.5 20.3006 0.919272 22.2462 1.75781C24.1915 2.59661 25.8838 3.73485 27.323 5.17253C28.7621 6.61021 29.9014 8.3007 30.7407 10.244C31.5802 12.1876 32 14.2792 32 16.5188C32 18.7319 31.5797 20.8094 30.7392 22.7515C29.8986 24.6935 28.7579 26.3892 27.3169 27.8384C25.8758 29.2873 24.1858 30.4266 22.247 31.2561C20.3079 32.0854 18.2211 32.5 15.9865 32.5ZM15.9812 28.9653C19.4407 28.9653 22.3799 27.7574 24.7991 25.3416C27.2182 22.9257 28.4277 19.9848 28.4277 16.5188C28.4277 13.0593 27.2182 10.1201 24.7991 7.70094C22.3799 5.28183 19.4344 4.07227 15.9624 4.07227C12.5155 4.07227 9.58245 5.28183 7.16334 7.70094C4.74422 10.1201 3.53467 13.0656 3.53467 16.5376C3.53467 19.9845 4.74259 22.9175 7.15845 25.3367C9.5743 27.7558 12.5152 28.9653 15.9812 28.9653Z" fill="#A6CE39"/>
</svg>
