<svg xmlns="http://www.w3.org/2000/svg" width="32" height="32" viewBox="0 0 32 32">
  <path fill="#FFBD32" d="M20.9,4 L20.9,7 L17,7 L17,8 L20.9,8 L20.9,11 L17,11 L16.9998373,15.1738934 C19.8666193,15.8509982 22,18.4263602 22,21.5 C22,25.0898509 19.0898509,28 15.5,28 C11.9101491,28 9,25.0898509 9,21.5 C9,18.4267182 11.1328838,15.8515981 13.999161,15.1741301 L14,4 L20.9,4 Z M15.5,17.6 C13.3460895,17.6 11.6,19.3460895 11.6,21.5 C11.6,23.6539105 13.3460895,25.4 15.5,25.4 C17.6539105,25.4 19.4,23.6539105 19.4,21.5 C19.4,19.3460895 17.6539105,17.6 15.5,17.6 Z"/>
</svg>
