<svg xmlns="http://www.w3.org/2000/svg" width="32" height="32" viewBox="0 0 32 32">
  <path fill="#FFBD32" d="M21.3241161,1.2027958 L21.3241161,4.80204218 L16.802377,4.80204218 L16.802377,6.00179097 L21.3241161,6.00179097 L21.3241161,9.60103736 L16.802377,9.60103736 L16.8025334,13.9532859 C20.1760796,14.7070044 22.7027958,17.7951245 22.7027958,21.490125 C22.7027958,25.7497154 19.3449314,29.2027958 15.2027958,29.2027958 C11.0606602,29.2027958 7.7027958,25.7497154 7.7027958,21.490125 C7.7027958,17.8976017 10.0913034,14.8787633 13.3243619,14.0213468 L13.3241161,1.2027958 L21.3241161,1.2027958 Z M15.2027958,16.8625225 C12.7175144,16.8625225 10.7027958,18.9343707 10.7027958,21.490125 C10.7027958,24.0458793 12.7175144,26.1177275 15.2027958,26.1177275 C17.6880772,26.1177275 19.7027958,24.0458793 19.7027958,21.490125 C19.7027958,18.9343707 17.6880772,16.8625225 15.2027958,16.8625225 Z" transform="rotate(45 15.203 15.203)"/>
</svg>
