<svg xmlns="http://www.w3.org/2000/svg" width="32" height="32" viewBox="0 0 32 32">
  <g fill="#00A500" fill-rule="evenodd" transform="translate(2 8)">
    <path d="M4.89285309,3 C6.32345505,3 7.48318708,4.198431 7.48318708,6.16476204 C7.48318708,7.39927189 7.02606362,8.48703297 6.33177897,9.12571199 L6.33192132,9.85514246 C6.93430296,9.95767004 7.48953333,10.1208324 7.99761243,10.3446296 C6.59349146,10.931755 5.4631016,11.8164312 4.6050382,13 L4.609,12.995 L-7.54951657e-15,12.9951477 L-7.54951657e-15,11.5705277 C0.76712784,10.590195 1.9183686,10.0004474 3.45372228,9.8012851 L3.45313835,9.12498602 C2.75929632,8.48620889 2.3025191,7.39880427 2.3025191,6.16476204 C2.3025191,4.198431 3.46225113,3 4.89285309,3 Z"/>
    <path d="M24.8904655,3 C26.3210675,3 27.4807995,4.198431 27.4807995,6.16476204 C27.4807995,7.39927189 27.0236761,8.48703297 26.3293914,9.12571199 L26.3295337,9.85514246 C26.9319154,9.95767004 27.4871458,10.1208324 27.9952249,10.3446296 C26.5911039,10.931755 25.460714,11.8164312 24.6026506,13 L24.6066124,12.995 L19.9976124,12.9951477 L19.9976124,11.5705277 C20.7647403,10.590195 21.915981,10.0004474 23.4513347,9.8012851 L23.4507508,9.12498602 C22.7569087,8.48620889 22.3001315,7.39880427 22.3001315,6.16476204 C22.3001315,4.198431 23.4598636,3 24.8904655,3 Z" transform="matrix(-1 0 0 1 47.993 0)"/>
    <path d="M13.9976124,0 C16.3766852,0 17.8888022,1.83293682 17.8888022,4.84033613 C17.8888022,6.60373271 17.3689221,8.17135716 16.4592223,9.1665201 L16.4593096,10.4940226 C18.7142116,10.8564413 20.5603125,11.6917671 21.9976124,13 L21.9976124,16 L5.99761243,16 L5.99761243,13 C7.23371328,11.5789972 9.07977703,10.7159448 11.5358037,10.4108427 L11.536008,9.18074833 C10.6617792,8.21159109 10.1619793,6.6729659 10.1064226,4.84033613 C10.0106366,1.68067227 11.6185397,0 13.9976124,0 Z"/>
  </g>
</svg>
