<svg xmlns="http://www.w3.org/2000/svg" width="32" height="32" viewBox="0 0 32 32">
  <path fill="#AB1600" fill-rule="evenodd" d="M20.5833333,8.75 C20.5833333,8.23716416 20.1972931,7.81449284 19.6999545,7.75672773 L19.5833333,7.75 L12.4166667,7.75 C11.9038308,7.75 11.4811595,8.13604019 11.4233944,8.63337887 L11.4166667,8.75 L11.4166667,12.3333333 L8.66666667,12.3333333 L8.66666667,10 C8.66666667,7.23857625 10.9052429,5 13.6666667,5 L18.3333333,5 C21.0947571,5 23.3333333,7.23857625 23.3333333,10 L23.3333333,12.3333333 L25,12.3333333 C26.1045695,12.3333333 27,13.2287638 27,14.3333333 L27,25 C27,26.1045695 26.1045695,27 25,27 L7,27 C5.8954305,27 5,26.1045695 5,25 L5,14.3333333 C5,13.2287638 5.8954305,12.3333333 7,12.3333333 L20.5833333,12.3333333 L20.5833333,8.75 Z M16,16 C15.0381041,16 14.2492271,16.7407822 14.1727441,17.6829715 L14.1666667,17.8333333 L14.1666667,21.5 C14.1666667,22.512522 14.987478,23.3333333 16,23.3333333 C16.9618959,23.3333333 17.7507729,22.5925511 17.8272559,21.6503618 L17.8333333,21.5 L17.8333333,17.8333333 C17.8333333,16.8208113 17.012522,16 16,16 Z"/>
</svg>
