<svg width="36" height="37" viewBox="0 0 36 37" fill="none" xmlns="http://www.w3.org/2000/svg">
<circle cx="18" cy="18.5" r="17" fill="#00A500" stroke="#00A500" stroke-width="2"/>
<path fill-rule="evenodd" clip-rule="evenodd" d="M13.7654 20.338C13.4199 20.1706 13.0046 20.0153 12.5237 19.9138V19.344C13.0196 18.865 13.346 18.0493 13.346 17.1236C13.346 15.6488 12.5175 14.75 11.4955 14.75C10.4734 14.75 9.6449 15.6488 9.6449 17.1236C9.6449 18.0495 9.9715 18.8653 10.4675 19.3443V19.8659C8.76602 20.1502 8 21.1778 8 21.1778V22.2463H11.2924C11.3425 22.1755 12.1273 21.0926 13.7654 20.338Z" fill="white"/>
<path fill-rule="evenodd" clip-rule="evenodd" d="M22.2346 20.338C22.5801 20.1706 22.9954 20.0153 23.4763 19.9138V19.344C22.9804 18.865 22.654 18.0493 22.654 17.1236C22.654 15.6488 23.4825 14.75 24.5045 14.75C25.5266 14.75 26.3551 15.6488 26.3551 17.1236C26.3551 18.0495 26.0285 18.8653 25.5325 19.3443V19.8659C27.234 20.1502 28 21.1778 28 21.1778V22.2463H24.7076C24.6575 22.1755 23.8727 21.0926 22.2346 20.338Z" fill="white"/>
<path fill-rule="evenodd" clip-rule="evenodd" d="M20.7799 16.1303C20.7799 17.4527 20.4086 18.6283 19.7588 19.3747V20.4059C22.3158 20.9128 23.7152 22.25 23.7152 22.25V24.5H12.2847V22.25C12.2847 22.25 13.5139 20.7665 16.2417 20.3323V19.3859C15.617 18.659 15.2598 17.5049 15.2201 16.1303C15.1517 13.7605 16.3004 12.5 18 12.5C19.6996 12.5 20.7799 13.8747 20.7799 16.1303Z" fill="white"/>
</svg>
