<svg xmlns="http://www.w3.org/2000/svg" width="32" height="32" viewBox="0 0 32 32">
  <g fill="#00A500" fill-rule="evenodd" transform="translate(4 9)">
    <path d="M19.5652174 2.5C20.8618859 2.5 21.9130435 3.56921315 21.9130435 5.32352941 21.9130435 6.42452232 21.4990237 7.3946865 20.8701315 7.96458735L20.8712348 8.61628456C22.1478945 8.83046502 23.1908162 9.34051409 24 10.1464318L24 11.5 19.8258963 11.5 19.826087 11.4217748C18.8745242 10.3988368 17.7397986 9.62614964 16.4219102 9.10371322 16.9445122 8.8361638 17.558277 8.65766303 18.2607592 8.56796096L18.260359 7.96463784C17.6314355 7.3947438 17.2173913 6.42455484 17.2173913 5.32352941 17.2173913 3.56921315 18.2685488 2.5 19.5652174 2.5zM4.43478261 2.5C5.73145115 2.5 6.7826087 3.56921315 6.7826087 5.32352941 6.7826087 6.42452232 6.36858893 7.3946865 5.7396967 7.96458735L5.74080002 8.61628456C6.2870384 8.70792495 6.79048667 8.85372963 7.25114484 9.05369859 5.9770884 9.57585403 4.95197891 10.365367 4.17391304 11.4217748L4.17391304 11.4217748 4.173 11.5 0 11.5 0 10.1464318C.695299208 9.27181342 1.73874067 8.74565649 3.13032439 8.56796096L3.12992423 7.96463784C2.50100074 7.3947438 2.08695652 6.42455484 2.08695652 5.32352941 2.08695652 3.56921315 3.13811407 2.5 4.43478261 2.5z"/>
    <path d="M12,0 C14.01704,0 15.6521739,1.60381972 15.6521739,4.23529412 C15.6521739,5.85404958 15.0334206,7.28426425 14.0876408,8.14534494 L14.0877198,9.21071331 C15.999199,9.57717124 17.5641619,10.4216178 18.7826087,11.7440529 L18.7826087,14 L5.2173913,14 L5.2173913,11.7440529 C6.26525981,10.3076445 7.83014245,9.43516534 9.91203923,9.12661555 L9.91235918,8.14534494 C8.96657939,7.28426425 8.34782609,5.85404958 8.34782609,4.23529412 C8.34782609,1.60381972 9.98296004,0 12,0 Z"/>
  </g>
</svg>
