<svg xmlns="http://www.w3.org/2000/svg" width="32" height="32" viewBox="0 0 32 32">
  <path fill="#AB1600" fill-rule="evenodd" d="M21,8 C21,7.48716416 20.6139598,7.06449284 20.1166211,7.00672773 L20,7 L12,7 C11.4871642,7 11.0644928,7.38604019 11.0067277,7.88337887 L11,8 L11,12 L8,12 L8,9 C8,6.23857625 10.2385763,4 13,4 L19,4 C21.7614237,4 24,6.23857625 24,9 L24,12 L26,12 C27.1045695,12 28,12.8954305 28,14 L28,26 C28,27.1045695 27.1045695,28 26,28 L6,28 C4.8954305,28 4,27.1045695 4,26 L4,14 C4,12.8954305 4.8954305,12 6,12 L21,12 L21,8 Z M16,16 C14.9456382,16 14.0818349,16.8158778 14.0054857,17.8507377 L14,18 L14,22 C14,23.1045695 14.8954305,24 16,24 C17.0543618,24 17.9181651,23.1841222 17.9945143,22.1492623 L18,22 L18,18 C18,16.8954305 17.1045695,16 16,16 Z"/>
</svg>
