<svg width="48" height="48" viewBox="0 0 48 48" fill="none" xmlns="http://www.w3.org/2000/svg">
<path d="M14.1497 34.4C12.8164 35.5333 11.4247 36.0417 9.97473 35.925C8.52473 35.8083 7.2664 35.3 6.19973 34.4C5.13307 33.5 4.42473 32.3417 4.07473 30.925C3.72473 29.5083 3.99973 28.05 4.89973 26.55L8.99973 19.7C8.09973 19 7.38307 18.1228 6.84973 17.0685C6.3164 16.0138 6.04973 14.8743 6.04973 13.65C6.04973 11.5323 6.79973 9.71968 8.29973 8.21201C9.79973 6.70401 11.6164 5.95001 13.7497 5.95001C15.8831 5.95001 17.6997 6.70001 19.1997 8.20001C20.6997 9.70001 21.4497 11.5167 21.4497 13.65C21.4497 15.7833 20.6957 17.6 19.1877 19.1C17.6797 20.6 15.8671 21.35 13.7497 21.35C13.3897 21.35 13.0297 21.325 12.6697 21.275C12.3097 21.225 11.9697 21.15 11.6497 21.05L7.44973 28.1C6.98307 28.8667 6.83607 29.6185 7.00873 30.3555C7.18107 31.0922 7.54773 31.6922 8.10873 32.1555C8.6694 32.6185 9.32473 32.875 10.0747 32.925C10.8247 32.975 11.5331 32.7167 12.1997 32.15L33.8497 13.55C35.1831 12.4167 36.5831 11.9 38.0497 12C39.5164 12.1 40.7831 12.6 41.8497 13.5C42.9164 14.4 43.6247 15.5667 43.9747 17C44.3247 18.4333 44.0497 19.9 43.1497 21.4L39.0997 28.25C39.9997 28.95 40.7164 29.8272 41.2497 30.8815C41.7831 31.9362 42.0497 33.0757 42.0497 34.3C42.0497 36.4173 41.2907 38.23 39.7727 39.738C38.2544 41.246 36.4294 42 34.2977 42C32.1657 42 30.3581 41.246 28.8747 39.738C27.3914 38.23 26.6497 36.4173 26.6497 34.3C26.6497 32.1827 27.3914 30.37 28.8747 28.862C30.3581 27.354 32.1664 26.6 34.2997 26.6C34.6574 26.6 35.0052 26.6167 35.3432 26.65C35.6809 26.6833 36.0164 26.75 36.3497 26.85L40.5497 19.85C41.0164 19.0833 41.1634 18.3315 40.9907 17.5945C40.8184 16.8578 40.4517 16.2578 39.8907 15.7945C39.3301 15.3315 38.6747 15.075 37.9247 15.025C37.1747 14.975 36.4664 15.2333 35.7997 15.8L14.1497 34.4ZM17.0747 16.967C17.9914 16.045 18.4497 14.9367 18.4497 13.642C18.4497 12.3473 17.9887 11.2417 17.0667 10.325C16.1447 9.40835 15.0364 8.95001 13.7417 8.95001C12.4471 8.95001 11.3414 9.41101 10.4247 10.333C9.50807 11.255 9.04973 12.3633 9.04973 13.658C9.04973 14.9527 9.51073 16.0583 10.4327 16.975C11.3547 17.8917 12.4631 18.35 13.7577 18.35C15.0524 18.35 16.1581 17.889 17.0747 16.967ZM37.6562 37.617C38.5852 36.695 39.0497 35.5867 39.0497 34.292C39.0497 32.9973 38.5852 31.8917 37.6562 30.975C36.7276 30.0583 35.6109 29.6 34.3062 29.6C33.0019 29.6 31.8997 30.061 30.9997 30.983C30.0997 31.905 29.6497 33.0133 29.6497 34.308C29.6497 35.6027 30.0997 36.7083 30.9997 37.625C31.8997 38.5417 33.0019 39 34.3062 39C35.6109 39 36.7276 38.539 37.6562 37.617Z" fill="#BDBDBD"/>
</svg>
