<svg width="200" height="200" fill="none" xmlns="http://www.w3.org/2000/svg"><circle cx="100" cy="100" r="100" fill="#F5F9E8"/><path fill="#fff" d="M53.333 75.997H146V146.6H53.333z"/><path d="M57.5 152c-2 0-3.75-.75-5.25-2.25S50 146.5 50 144.5v-65c0-2 .75-3.75 2.25-5.25S55.5 72 57.5 72h85c2 0 3.75.75 5.25 2.25S150 77.5 150 79.5v65c0 2-.75 3.75-2.25 5.25S144.5 152 142.5 152h-85Zm42.5-37.75L57.5 86.375V144.5h85V86.375L100 114.25Zm0-7.5 42-27.25H58.125L100 106.75ZM57.5 86.375V79.5v65-58.125Z" fill="#212121"/><path fill="#fff" d="M37.947 51.946H70.8v32.853H37.947z"/><path d="m82 68-6.21-7.068.864-9.348-9.188-2.077-4.811-8.107L54 45.099l-8.654-3.7-4.811 8.082-9.19 2.052.866 9.374L26 68l6.21 7.068-.864 9.373 9.189 2.078 4.81 8.08L54 90.877l8.654 3.699 4.812-8.082 9.189-2.077-.866-9.348L82 68ZM49.138 79.957l-9.672-9.652 3.767-3.75 5.905 5.904L64.03 57.588l3.767 3.75-18.658 18.62Z" fill="#A6CE39"/></svg>