<svg width="200" height="200" fill="none" xmlns="http://www.w3.org/2000/svg"><circle cx="100" cy="100" r="100" fill="#FFECAB"/><path fill="#fff" d="M53.333 75.997H146V146.6H53.333z"/><path d="M57.5 152c-2 0-3.75-.75-5.25-2.25S50 146.5 50 144.5v-65c0-2 .75-3.75 2.25-5.25S55.5 72 57.5 72h85c2 0 3.75.75 5.25 2.25S150 77.5 150 79.5v65c0 2-.75 3.75-2.25 5.25S144.5 152 142.5 152h-85Zm42.5-37.75L57.5 86.375V144.5h85V86.375L100 114.25Zm0-7.5 42-27.25H58.125L100 106.75ZM57.5 86.375V79.5v65-58.125Z" fill="#212121"/><circle cx="54" cy="68" r="28" fill="#fff"/><path d="M54 82c.653 0 1.202-.222 1.645-.665.443-.443.665-.992.665-1.645s-.222-1.202-.665-1.645c-.443-.443-.992-.665-1.645-.665s-1.202.222-1.645.665c-.443.443-.665.992-.665 1.645s.222 1.202.665 1.645c.443.443.992.665 1.645.665Zm-1.89-10.71h4.2V53.58h-4.2v17.71ZM54 96c-3.827 0-7.443-.735-10.85-2.205-3.407-1.47-6.382-3.477-8.925-6.02-2.543-2.543-4.55-5.518-6.02-8.925C26.735 75.443 26 71.803 26 67.93c0-3.827.735-7.443 2.205-10.85 1.47-3.407 3.477-6.37 6.02-8.89 2.543-2.52 5.518-4.515 8.925-5.985C46.557 40.735 50.197 40 54.07 40c3.827 0 7.443.735 10.85 2.205 3.407 1.47 6.37 3.465 8.89 5.985 2.52 2.52 4.515 5.483 5.985 8.89C81.265 60.487 82 64.127 82 68c0 3.827-.735 7.443-2.205 10.85-1.47 3.407-3.465 6.382-5.985 8.925-2.52 2.543-5.483 4.55-8.89 6.02C61.513 95.265 57.873 96 54 96Z" fill="#FF6400"/></svg>