<svg width="43" height="32" viewBox="0 0 43 32" fill="none" xmlns="http://www.w3.org/2000/svg">
<path d="M11.1426 2.15253C15.3332 5.27589 19.8456 11.6056 21.4999 15.0036C23.1543 11.6056 27.6667 5.27589 31.8573 2.15253C34.8827 -0.102158 39.7814 -1.84587 39.7814 3.70463C39.7814 9.25513 39.1441 13.0108 38.7643 14.3457C37.4576 18.9765 32.7005 20.1517 28.4713 19.4364C35.8676 20.6819 37.7472 24.8208 33.6854 28.9597C25.9673 36.816 22.5943 26.9861 21.7317 24.4695C21.5708 24.0096 21.4999 23.7925 21.4999 23.9777C21.4999 23.7925 21.4227 24.0096 21.2682 24.4695C20.4056 26.9861 17.0326 36.816 9.31446 28.9597C5.25264 24.8208 7.13228 20.6883 14.5285 19.4364C10.2993 20.1517 5.54231 18.9701 4.23557 14.3457C3.85578 13.0108 3.21851 4.80962 3.21851 3.69824C3.21851 -1.84587 8.11716 -0.102158 11.1426 2.15253Z" fill="#212121"/>
</svg>
