<svg width="32" height="32" viewBox="0 0 32 32" fill="none" xmlns="http://www.w3.org/2000/svg">
<path fill-rule="evenodd" clip-rule="evenodd" d="M18.103 31.863C25.9457 30.8334 32 24.1237 32 16C32 7.16344 24.8366 0 16 0C7.16344 0 0 7.16344 0 16C0 23.5627 5.24705 29.9 12.2993 31.5699V20.8894H9V16H12.2993V13.8932C12.2993 8.44731 14.7639 5.92309 20.1104 5.92309C21.124 5.92309 22.8731 6.12188 23.5886 6.32066V10.7528C23.2109 10.7131 22.5551 10.6933 21.7402 10.6933C19.1166 10.6933 18.103 11.687 18.103 14.2708V16H23.3292L22.4313 20.8894H18.103V31.863Z" fill="#212121"/>
</svg>
