<svg width="34" height="32" viewBox="0 0 34 32" fill="none" xmlns="http://www.w3.org/2000/svg">
<path fill-rule="evenodd" clip-rule="evenodd" d="M17.2617 0C8.25666 0 0.97699 7.33333 0.97699 16.4057C0.97699 23.6577 5.64132 29.7963 12.112 31.969C12.921 32.1323 13.2173 31.616 13.2173 31.1817C13.2173 30.8013 13.1907 29.4977 13.1907 28.1393C8.66066 29.1173 7.71732 26.1837 7.71732 26.1837C6.98932 24.2823 5.91066 23.7937 5.91066 23.7937C4.42799 22.7887 6.01866 22.7887 6.01866 22.7887C7.66332 22.8973 8.52632 24.4727 8.52632 24.4727C9.98199 26.9713 12.3277 26.2653 13.2713 25.8307C13.406 24.7713 13.8377 24.038 14.296 23.6307C10.683 23.2503 6.88166 21.838 6.88166 15.5363C6.88166 13.7437 7.52832 12.277 8.55299 11.1363C8.39132 10.729 7.82499 9.04467 8.71499 6.79033C8.71499 6.79033 10.09 6.35567 13.1903 8.47433C14.5177 8.11522 15.8866 7.93254 17.2617 7.931C18.6367 7.931 20.0383 8.12133 21.3327 8.47433C24.4333 6.35567 25.8083 6.79033 25.8083 6.79033C26.6983 9.04467 26.1317 10.729 25.97 11.1363C27.0217 12.277 27.6417 13.7437 27.6417 15.5363C27.6417 21.838 23.8403 23.223 20.2003 23.6307C20.7937 24.1467 21.3057 25.1243 21.3057 26.6727C21.3057 28.8727 21.279 30.6383 21.279 31.1813C21.279 31.616 21.5757 32.1323 22.3843 31.9693C28.855 29.796 33.5193 23.6577 33.5193 16.4057C33.546 7.33333 26.2397 0 17.2617 0Z" fill="#212121"/>
</svg>
