<svg width="32" height="32" viewBox="0 0 32 32" fill="none" xmlns="http://www.w3.org/2000/svg">
<path fill-rule="evenodd" clip-rule="evenodd" d="M28.4444 32H3.55556C1.59188 32 0 30.4081 0 28.4444V3.55556C0 1.59188 1.59188 0 3.55556 0H28.4444C30.4081 0 32 1.59188 32 3.55556V28.4444C32 30.4081 30.4081 32 28.4444 32ZM22.8069 27.5556H27.5556V17.8005C27.5556 13.6731 25.2159 11.6774 21.9478 11.6774C18.6782 11.6774 17.3023 14.2235 17.3023 14.2235V12.1481H12.7259V27.5556H17.3023V19.4676C17.3023 17.3005 18.2998 16.0109 20.2092 16.0109C21.9644 16.0109 22.8069 17.2501 22.8069 19.4676V27.5556ZM4.44444 7.28756C4.44444 8.85763 5.70758 10.1307 7.26638 10.1307C8.82517 10.1307 10.0876 8.85763 10.0876 7.28756C10.0876 5.71749 8.82517 4.44444 7.26638 4.44444C5.70758 4.44444 4.44444 5.71749 4.44444 7.28756ZM9.67529 27.5556H4.90336V12.1481H9.67529V27.5556Z" fill="#212121"/>
</svg>
