<svg width="30" height="32" viewBox="0 0 30 32" fill="none" xmlns="http://www.w3.org/2000/svg">
<path fill-rule="evenodd" clip-rule="evenodd" d="M21.2743 24.3902C25.2837 23.9114 28.7748 21.441 29.2136 19.1837C29.9049 15.6278 29.8479 10.5061 29.8479 10.5061C29.8479 3.56433 25.2998 1.52959 25.2998 1.52959C23.0066 0.476359 19.0688 0.0334469 14.9778 0H14.8773C10.7862 0.0334469 6.85107 0.476359 4.55772 1.52959C4.55772 1.52959 0.00946098 3.56433 0.00946098 10.5061C0.00946098 10.9269 0.00728585 11.3696 0.00502148 11.8304C-0.00126717 13.1101 -0.00824417 14.5299 0.0287705 16.0119C0.193936 22.8006 1.27337 29.4912 7.55001 31.1525C10.444 31.9185 12.9287 32.0788 14.9299 31.9688C18.5589 31.7676 20.596 30.6737 20.596 30.6737L20.4764 28.0407C20.4764 28.0407 17.883 28.8584 14.9706 28.7588C12.085 28.6598 9.03874 28.4476 8.57203 24.9048C8.52893 24.5936 8.50738 24.2609 8.50738 23.9114C8.50738 23.9114 11.34 24.6038 14.9299 24.7683C17.1249 24.869 19.1835 24.6397 21.2743 24.3902ZM24.4831 19.45V11.0446C24.4831 9.32678 24.0457 7.96167 23.1673 6.95171C22.2611 5.94175 21.0746 5.42401 19.6019 5.42401C17.8977 5.42401 16.6072 6.07899 15.7541 7.3891L14.9245 8.77956L14.0951 7.3891C13.2418 6.07899 11.9514 5.42401 10.2473 5.42401C8.77444 5.42401 7.58793 5.94175 6.68194 6.95171C5.80335 7.96167 5.36596 9.32678 5.36596 11.0446V19.45H8.69599V11.2917C8.69599 9.57194 9.41958 8.69905 10.8669 8.69905C12.4672 8.69905 13.2694 9.73452 13.2694 11.782V16.2475H16.5798V11.782C16.5798 9.73452 17.3818 8.69905 18.9821 8.69905C20.4295 8.69905 21.1531 9.57194 21.1531 11.2917V19.45H24.4831Z" fill="#212121"/>
</svg>
