<svg width="33" height="32" viewBox="0 0 33 32" fill="none" xmlns="http://www.w3.org/2000/svg">
<path fill-rule="evenodd" clip-rule="evenodd" d="M6.51941 0H26.5194C29.8331 0 32.5194 2.68629 32.5194 6V26C32.5194 29.3137 29.8331 32 26.5194 32H6.51941C3.2057 32 0.519409 29.3137 0.519409 26V6C0.519409 2.68629 3.2057 0 6.51941 0ZM12.5194 24C12.5194 26.2091 10.7285 28 8.51941 28C6.31027 28 4.51941 26.2091 4.51941 24C4.51941 21.7909 6.31027 20 8.51941 20C10.7285 20 12.5194 21.7909 12.5194 24ZM4.51941 16C7.70201 16 10.7543 17.2643 13.0047 19.5147C15.2551 21.7652 16.5194 24.8174 16.5194 28H20.5194C20.5194 23.7565 18.8337 19.6869 15.8331 16.6863C12.8325 13.6857 8.76287 12 4.51941 12V16ZM12.1731 9.52241C9.74657 8.51731 7.14585 8 4.51941 8V4C10.8846 4 16.9891 6.52856 21.49 11.0294C25.9908 15.5303 28.5194 21.6348 28.5194 28H24.5194C24.5194 25.3736 24.0021 22.7728 22.997 20.3463C21.9919 17.9198 20.5187 15.715 18.6615 13.8579C16.8044 12.0007 14.5996 10.5275 12.1731 9.52241Z" fill="#212121"/>
</svg>
