<svg width="38" height="32" viewBox="0 0 38 32" fill="none" xmlns="http://www.w3.org/2000/svg">
<path d="M37.84 7.39167C37.6748 10.9933 35.1635 15.9249 30.2898 22.1864C25.2591 28.7288 21.0049 32 17.5189 32C15.3629 32 13.5373 30.0092 12.0421 26.0276C9.13438 15.3549 7.89529 9.10162 5.49146 9.10162C5.2106 9.10162 4.24411 9.68812 2.58373 10.8446L0.848999 8.59772C5.11147 4.85567 9.18394 0.692327 11.7365 0.461031C14.6194 0.18017 16.3872 2.15445 17.0563 6.36736C19.4271 21.3603 20.4762 23.6238 24.7882 16.8335C26.3329 14.3884 27.1673 12.5298 27.2829 11.2494C27.6794 7.45776 24.3256 7.71384 22.054 8.68859C23.8713 2.7327 27.349 -0.158514 32.4788 0.00669762C36.2622 0.105825 38.0547 2.57574 37.84 7.39167Z" fill="#212121"/>
</svg>
