<svg width="46" height="32" viewBox="0 0 46 32" fill="none" xmlns="http://www.w3.org/2000/svg">
<path d="M18.9047 22.5601V9.024L30.6269 15.792L18.9047 22.5601ZM45.0339 4.93183C44.5152 2.99053 42.9864 1.46184 41.0451 0.942975C37.5261 0 23.4169 0 23.4169 0C23.4169 0 9.30767 0 5.78865 0.942975C3.84771 1.46184 2.31866 2.99053 1.7998 4.93183C0.857178 8.4505 0.857178 15.792 0.857178 15.792C0.857178 15.792 0.857178 23.1335 1.7998 26.6518C2.31866 28.5931 3.84771 30.1223 5.78865 30.641C9.30767 31.5836 23.4169 31.5836 23.4169 31.5836C23.4169 31.5836 37.5261 31.5836 41.0451 30.641C42.9864 30.1223 44.5152 28.5931 45.0339 26.6518C45.977 23.1335 45.977 15.792 45.977 15.792C45.977 15.792 45.977 8.4505 45.0339 4.93183Z" fill="#212121"/>
</svg>
